<?xml version="1.0" encoding="utf-8"?>
<svg xmlns="http://www.w3.org/2000/svg" version="1.1" viewBox="-11 -12 80 24" width="1000" height="20" xmlns:bx="https://boxy-svg.com"><defs><bx:export><bx:file format="svg" path="Untitled 2.svg"/></bx:export></defs><path style="fill: rgba(29, 48, 106, 0); stroke: rgb(29, 48, 106);" d="M -11.049 -2.714 C -7.219 -2.714 -4.014 -4.433 -0.843 -6.019 C 0.204 -6.542 1.119 -6.717 1.976 -7.574"/><path style="stroke: rgb(144, 219, 36); fill: rgba(144, 219, 36, 0);" d="M -11.049 0.785 C -7.948 0.785 -3.798 1.447 -0.94 0.494 C -0.253 0.265 1.976 0.397 1.976 0.397"/><path style="fill: rgba(255, 0, 0, 0); stroke: rgb(255, 0, 0);" d="M -11.049 3.507 C -10.048 3.507 -6.858 2.935 -6.189 3.604 C -4.981 4.812 -2.997 5.922 -1.718 7.201 C -1.547 7.371 -0.689 8.173 -0.551 8.173"/><path style="stroke: rgb(29, 48, 106); fill: rgba(29, 48, 106, 0);" d="M 68.947 -5.824 C 66.403 -5.824 63.475 -5.353 61.171 -6.505 C 60.11 -7.035 59.033 -7.233 57.963 -7.768 C 57.743 -7.879 57.131 -8.254 56.991 -8.254"/><path style="fill: rgba(144, 219, 36, 0); stroke: rgb(144, 219, 36);" d="M 69.53 -0.575 C 68.137 -0.854 65.662 -0.708 64.281 -0.478 C 61.654 -0.04 58.614 -0.478 55.922 -0.478"/><path style="fill: rgba(255, 0, 0, 0); stroke: rgb(255, 0, 0);" d="M 69.336 3.507 C 66.773 6.07 62.061 4.617 59.032 6.131 C 58.481 6.407 56.933 7.687 56.408 7.687"/></svg>